<?xml version="1.0" standalone="no"?>
<!DOCTYPE svg PUBLIC "-//W3C//DTD SVG 20010904//EN"
 "http://www.w3.org/TR/2001/REC-SVG-20010904/DTD/svg10.dtd">
<svg version="1.0" xmlns="http://www.w3.org/2000/svg"
 width="96.000000pt" height="96.000000pt" viewBox="0 0 96.000000 96.000000"
 preserveAspectRatio="xMidYMid meet">

<g transform="translate(0.000000,96.000000) scale(0.100000,-0.100000)"
fill="#000000" stroke="none">
<path d="M130 695 c0 -20 -5 -25 -25 -25 -24 0 -25 -2 -25 -70 0 -68 1 -70 25
-70 23 0 25 -3 25 -50 l0 -50 -45 0 -45 0 0 -70 c0 -63 2 -70 20 -70 15 0 20
-7 20 -25 l0 -25 195 0 195 0 0 40 0 40 75 0 c60 0 75 3 75 15 0 8 7 15 15 15
8 0 15 -7 15 -15 0 -12 13 -15 60 -15 l60 0 0 30 0 30 60 0 c47 0 60 3 60 15
0 8 7 15 15 15 12 0 15 16 15 80 0 64 -3 80 -15 80 -8 0 -15 7 -15 15 0 8 -7
15 -15 15 -8 0 -15 7 -15 15 0 13 -27 15 -180 15 -153 0 -180 -2 -180 -15 0
-8 -7 -15 -15 -15 -8 0 -15 7 -15 15 0 11 -12 15 -50 15 -43 0 -50 3 -50 20 0
15 -7 20 -25 20 -20 0 -25 5 -25 25 0 25 0 25 -95 25 -95 0 -95 0 -95 -25z
m150 -170 l0 -145 45 0 c38 0 45 -3 45 -20 0 -19 -7 -20 -145 -20 -138 0 -145
1 -145 20 0 17 7 20 50 20 l50 0 0 100 0 100 -25 0 c-18 0 -25 5 -25 20 0 15
7 20 25 20 20 0 25 5 25 25 0 23 3 25 50 25 l50 0 0 -145z m150 -20 l0 -95 50
0 50 0 0 95 0 95 30 0 30 0 0 -95 c0 -78 -3 -95 -15 -95 -8 0 -15 -7 -15 -15
0 -12 -15 -15 -75 -15 -58 0 -77 4 -81 15 -4 8 -12 15 -20 15 -11 0 -14 20
-14 95 l0 95 30 0 30 0 0 -95z m400 80 c0 -8 7 -15 15 -15 11 0 15 -12 15 -45
0 -33 -4 -45 -15 -45 -8 0 -15 -7 -15 -15 0 -12 -13 -15 -60 -15 l-60 0 0 -35
c0 -32 -2 -35 -30 -35 l-30 0 0 110 0 110 90 0 c73 0 90 -3 90 -15z"/>
<path d="M710 525 l0 -45 45 0 45 0 0 45 0 45 -45 0 -45 0 0 -45z"/>
</g>
</svg>
